<svg width="800" height="800" viewBox="0 0 800 800" fill="none" xmlns="http://www.w3.org/2000/svg">
<g clip-path="url(#clip0_539_132)">
<path d="M397.982 595.384C562.393 595.384 695.674 462.103 695.674 297.692C695.674 133.281 562.393 0 397.982 0C233.572 0 100.291 133.281 100.291 297.692C100.291 462.103 233.572 595.384 397.982 595.384Z" fill="#BB4461"/>
<path d="M407.948 105.305H221.572H170.827C161.885 115.839 153.678 127.003 146.259 138.71C143.564 142.98 140.957 147.337 138.472 151.764C128.655 169.14 120.554 187.618 114.394 206.936C105.225 235.546 100.291 266.063 100.291 297.718C100.291 387.94 140.432 468.8 203.846 523.378C220.032 537.307 237.723 549.538 256.656 559.757C295.975 581.035 340.631 593.686 388.105 595.226C391.377 595.349 394.684 595.401 397.991 595.401C401.316 595.401 404.641 595.349 407.948 595.226V592.619L466.629 390.811L407.948 105.305Z" fill="#878693"/>
<path d="M566.233 105.314H317.747V238.657C317.747 368.452 422.965 473.67 552.76 473.67H607.208L628.314 741.109C628.965 749.347 622.454 756.39 614.191 756.39H578.936V799.998H624.657C666.107 799.998 699.71 766.396 699.71 724.946V473.668V238.79C699.71 165.073 639.951 105.314 566.233 105.314Z" fill="#878693"/>
<path d="M186.206 328.592C186.206 247.354 252.063 181.497 333.301 181.497H480.397V328.592C480.397 409.831 414.54 475.688 333.301 475.688C252.063 475.688 186.206 409.831 186.206 328.592Z" fill="#9898A5"/>
<path d="M578.701 799.874L578.935 800V756.392H552.819C552.817 774.536 562.751 791.224 578.701 799.874Z" fill="#737382"/>
<path d="M578.701 756.52L578.935 756.394V800.002H552.819C552.817 781.856 562.751 765.169 578.701 756.52Z" fill="#878693"/>
<path d="M621.105 340.385L606.292 344.65C594.473 348.053 582.134 341.23 578.732 329.412L574.467 314.6L589.279 310.335C601.099 306.932 613.437 313.755 616.84 325.573L621.105 340.385Z" fill="#4D4D4D"/>
</g>
<defs>
<clipPath id="clip0_539_132">
<rect width="800" height="800" fill="white"/>
</clipPath>
</defs>
</svg>
